# xmcd
#
# Track frame offsets:
#	150
#	19108
#	35257
#	49581
#	65224
#	82589
#	106352
#	124414
#	140373
#	155623
#	173109
#	188544
#	206251
#	220972
#	234477
#
# Disc length: 3380 seconds
#
# Revision: 2
# Processed by: cddbd v1.5.2PL0 Copyright (c) Steve Scherf et al.
# Submitted via: audiograbber 1.83.01
#
DISCID=c60d320f
DTITLE=Lord Est - Lestin Ruudeimmat
DYEAR=2012
DGENRE=Rap
TTITLE0=Pohjolan Äijä
TTITLE1=Talvi
TTITLE2=Hellä Ori Feat. Mariska
TTITLE3=Sä Teet
TTITLE4=Ilman Itsekurii
TTITLE5=Sun Vieres On Lämmiin
TTITLE6=Jään Tuijottaa Sun Silmiin
TTITLE7=Nyt Saa Juhlia Taas
TTITLE8=Tänään Räjähtää
TTITLE9=Juoksen Vapaana Kaupunkiin
TTITLE10=Huono Päivä, Hyvä Ilta
TTITLE11=Reggaerekka Feat. Petri Nygård
TTITLE12=Vuosi Vaihtuu Feat. Mikael Gabriel
TTITLE13=Pelaat Ja Juhlit
TTITLE14=Fiiliksen Mukaan
EXTD=
EXTT0=
EXTT1=
EXTT2=
EXTT3=
EXTT4=
EXTT5=
EXTT6=
EXTT7=
EXTT8=
EXTT9=
EXTT10=
EXTT11=
EXTT12=
EXTT13=
EXTT14=
PLAYORDER=
